grf
version=1
nRows=15
nColumns=37
inDegrees=no
endheader
time	ground_force_1_vx	ground_force_1_vy	ground_force_1_vz	ground_force_1_px	ground_force_1_py	ground_force_1_pz	ground_moment_1_mx	ground_moment_1_my	ground_moment_1_mz	ground_force_2_vx	ground_force_2_vy	ground_force_2_vz	ground_force_2_px	ground_force_2_py	ground_force_2_pz	ground_moment_2_mx	ground_moment_2_my	ground_moment_2_mz	ground_force_3_vx	ground_force_3_vy	ground_force_3_vz	ground_force_3_px	ground_force_3_py	ground_force_3_pz	ground_moment_3_mx	ground_moment_3_my	ground_moment_3_mz	ground_force_4_vx	ground_force_4_vy	ground_force_4_vz	ground_force_4_px	ground_force_4_py	ground_force_4_pz	ground_moment_4_mx	ground_moment_4_my	ground_moment_4_mz
      2.17000000	      0.00000000	     -0.00000000	      0.00000000	      0.00000000	      0.00000000	      0.00000000	      0.00000000	      0.00000000	      0.00000000	     -1.18572366	     22.63912201	   -508.32882690	   -288.22591957	  -1036.78594397	      0.00000000	      0.00000000	      0.00000000	   1771.30746495	     -7.72556387	    -58.46127252	   -389.27365112	   -215.94971544	   -719.24494760	      0.00000000	     -0.00000000	     -0.00000000	  -1507.92308092	      0.00000000	     -0.00000000	      0.00000000	      0.00000000	      0.00000000	      0.00000000	      0.00000000	      0.00000000	      0.00000000
      2.18000000	      0.00000000	     -0.00000000	      0.00000000	      0.00000000	      0.00000000	      0.00000000	      0.00000000	      0.00000000	      0.00000000	     -1.36475539	     21.89230919	   -517.49420166	   -287.44063996	  -1036.23656984	      0.00000000	      0.00000000	      0.00000000	   1686.90071753	     -7.85464831	    -56.77595833	   -379.06091309	   -215.07953735	   -721.48789172	      0.00000000	      0.00000000	     -0.00000000	  -1312.72779337	      0.00000000	     -0.00000000	      0.00000000	      0.00000000	      0.00000000	      0.00000000	      0.00000000	      0.00000000	      0.00000000
      2.19000000	      0.00000000	     -0.00000000	      0.00000000	      0.00000000	      0.00000000	      0.00000000	      0.00000000	      0.00000000	      0.00000000	     -1.55770481	     22.04301643	   -530.09558105	   -287.46835391	  -1036.96488832	      0.00000000	      0.00000000	      0.00000000	   1706.91347041	     -7.45171072	    -54.75224621	   -369.72308350	   -213.62188928	   -722.06587452	      0.00000000	     -0.00000000	      0.00000000	  -1392.82146401	      0.00000000	     -0.00000000	      0.00000000	      0.00000000	      0.00000000	      0.00000000	      0.00000000	      0.00000000	      0.00000000
      2.20000000	      0.00000000	     -0.00000000	      0.00000000	      0.00000000	      0.00000000	      0.00000000	      0.00000000	      0.00000000	      0.00000000	     -1.70850313	     22.44737053	   -540.93518066	   -285.93652170	  -1035.93059595	      0.00000000	      0.00000000	      0.00000000	   1627.86028855	     -6.90538771	    -52.58506715	   -360.56820679	   -213.36151495	   -722.93374025	      0.00000000	     -0.00000000	     -0.00000000	  -1584.60464754	      0.00000000	     -0.00000000	      0.00000000	      0.00000000	      0.00000000	      0.00000000	      0.00000000	      0.00000000	      0.00000000
      2.21000000	      0.00000000	     -0.00000000	      0.00000000	      0.00000000	      0.00000000	      0.00000000	      0.00000000	      0.00000000	      0.00000000	     -1.70146883	     23.08477402	   -553.50982666	   -285.33650924	  -1035.87463822	      0.00000000	      0.00000000	      0.00000000	   1589.36728115	     -7.13784848	    -50.24160704	   -351.91830444	   -212.54687670	   -723.41447195	      0.00000000	      0.00000000	     -0.00000000	  -1455.88714408	      0.00000000	     -0.00000000	      0.00000000	      0.00000000	      0.00000000	      0.00000000	      0.00000000	      0.00000000	      0.00000000
      2.22000000	      0.00000000	     -0.00000000	      0.00000000	      0.00000000	      0.00000000	      0.00000000	      0.00000000	      0.00000000	      0.00000000	     -2.18876982	     23.25059700	   -569.95849609	   -284.65710822	  -1037.10324045	      0.00000000	      0.00000000	      0.00000000	   1434.00649793	     -6.83723967	    -48.26456392	   -341.01873779	   -211.53536180	   -723.84259401	      0.00000000	      0.00000000	     -0.00000000	  -1471.25687209	      0.00000000	     -0.00000000	      0.00000000	      0.00000000	      0.00000000	      0.00000000	      0.00000000	      0.00000000	      0.00000000
      2.23000000	      0.00000000	     -0.00000000	      0.00000000	      0.00000000	      0.00000000	      0.00000000	      0.00000000	      0.00000000	      0.00000000	     -2.05184174	     23.53639984	   -583.99487305	   -283.45979399	  -1037.24775391	      0.00000000	      0.00000000	      0.00000000	   1649.52689469	     -6.56460210	    -45.96832218	   -329.25000000	   -209.85778560	   -725.88027553	      0.00000000	      0.00000000	     -0.00000000	  -1407.82702703	      0.00000000	     -0.00000000	      0.00000000	      0.00000000	      0.00000000	      0.00000000	      0.00000000	      0.00000000	      0.00000000
      2.24000000	      0.00000000	     -0.00000000	      0.00000000	      0.00000000	      0.00000000	      0.00000000	      0.00000000	      0.00000000	      0.00000000	     -2.27775455	     24.01199150	   -599.20410156	   -282.45362093	  -1036.45562229	      0.00000000	      0.00000000	      0.00000000	   1547.08391364	     -6.20975875	    -43.48938697	   -316.68054199	   -209.08156343	   -726.34962616	      0.00000000	      0.00000000	     -0.00000000	  -1393.65838220	      0.00000000	     -0.00000000	      0.00000000	      0.00000000	      0.00000000	      0.00000000	      0.00000000	      0.00000000	      0.00000000
      2.25000000	      0.00000000	     -0.00000000	      0.00000000	      0.00000000	      0.00000000	      0.00000000	      0.00000000	      0.00000000	      0.00000000	     -2.71815634	     24.35783195	   -614.72058105	   -281.74209216	  -1036.43703581	      0.00000000	      0.00000000	      0.00000000	   1479.53152283	     -5.94943878	    -40.58670755	   -302.48269653	   -208.06010609	   -727.80130676	      0.00000000	      0.00000000	     -0.00000000	  -1233.40513546	      0.00000000	     -0.00000000	      0.00000000	      0.00000000	      0.00000000	      0.00000000	      0.00000000	      0.00000000	      0.00000000
      2.26000000	      0.00000000	     -0.00000000	      0.00000000	      0.00000000	      0.00000000	      0.00000000	      0.00000000	      0.00000000	      0.00000000	     -2.62384152	     25.07710457	   -632.71148682	   -281.33674926	  -1037.10826516	      0.00000000	      0.00000000	      0.00000000	   1538.33603773	     -5.23393960	    -37.65543320	   -288.44277954	   -206.86253628	   -728.50964488	      0.00000000	      0.00000000	     -0.00000000	  -1133.28005477	      0.00000000	     -0.00000000	      0.00000000	      0.00000000	      0.00000000	      0.00000000	      0.00000000	      0.00000000	      0.00000000
      2.27000000	      0.00000000	     -0.00000000	      0.00000000	      0.00000000	      0.00000000	      0.00000000	      0.00000000	      0.00000000	      0.00000000	     -2.23026276	     25.56543350	   -649.74377441	   -280.78265302	  -1036.98934413	      0.00000000	      0.00000000	      0.00000000	   1621.46938174	     -4.58183019	    -34.60630758	   -270.94165039	   -205.87015160	   -730.74210326	      0.00000000	      0.00000000	     -0.00000000	  -1055.49969776	      0.00000000	     -0.00000000	      0.00000000	      0.00000000	      0.00000000	      0.00000000	      0.00000000	      0.00000000	      0.00000000
      2.28000000	      0.00000000	     -0.00000000	      0.00000000	      0.00000000	      0.00000000	      0.00000000	      0.00000000	      0.00000000	      0.00000000	     -1.96742678	     27.84606361	   -668.01135254	   -280.27884991	  -1037.83555234	      0.00000000	      0.00000000	      0.00000000	   1527.94985502	     -3.71568809	    -31.12074057	   -252.72573853	   -205.19587308	   -731.92506731	      0.00000000	      0.00000000	     -0.00000000	  -1155.08755984	      0.00000000	     -0.00000000	      0.00000000	      0.00000000	      0.00000000	      0.00000000	      0.00000000	      0.00000000	      0.00000000
      2.29000000	      0.00000000	     -0.00000000	      0.00000000	      0.00000000	      0.00000000	      0.00000000	      0.00000000	      0.00000000	      0.00000000	     -1.87793362	     29.24378967	   -684.49841309	   -279.40029864	  -1037.07206713	      0.00000000	      0.00000000	      0.00000000	   1491.80011386	     -2.39999637	    -28.30471018	   -233.76644897	   -203.87853007	   -732.43975880	      0.00000000	      0.00000000	     -0.00000000	  -1134.92058749	      0.00000000	     -0.00000000	      0.00000000	      0.00000000	      0.00000000	      0.00000000	      0.00000000	      0.00000000	      0.00000000
      2.30000000	      0.00000000	     -0.00000000	      0.00000000	      0.00000000	      0.00000000	      0.00000000	      0.00000000	      0.00000000	      0.00000000	     -2.18352318	     30.44442940	   -703.34942627	   -278.37364445	  -1037.74207581	      0.00000000	      0.00000000	      0.00000000	   1442.72140180	     -1.59223652	    -25.96203599	   -213.11219788	   -201.94779146	   -733.58938577	      0.00000000	     -0.00000000	     -0.00000000	   -834.16203369	      0.00000000	     -0.00000000	      0.00000000	      0.00000000	      0.00000000	      0.00000000	      0.00000000	      0.00000000	      0.00000000
      2.31000000	      0.00000000	     -0.00000000	      0.00000000	      0.00000000	      0.00000000	      0.00000000	      0.00000000	      0.00000000	      0.00000000	     -2.21014261	     32.03635025	   -722.10034180	   -278.09303441	  -1038.01705197	      0.00000000	      0.00000000	      0.00000000	   1320.63010616	     -0.49870287	    -22.64806552	   -188.84005737	   -199.77571092	   -736.78300354	      0.00000000	      0.00000000	     -0.00000000	   -648.59764581	      0.00000000	     -0.00000000	      0.00000000	      0.00000000	      0.00000000	      0.00000000	      0.00000000	      0.00000000	      0.00000000
